<?xml version="1.0" encoding="utf-8"?>
<!-- Generator: Adobe Illustrator 18.0.0, SVG Export Plug-In . SVG Version: 6.00 Build 0)  -->
<!DOCTYPE svg PUBLIC "-//W3C//DTD SVG 1.1//EN" "http://www.w3.org/Graphics/SVG/1.1/DTD/svg11.dtd">
<svg version="1.1" id="Layer_1" xmlns="http://www.w3.org/2000/svg" xmlns:xlink="http://www.w3.org/1999/xlink" x="0px" y="0px"
	 viewBox="822.2 949.2 60.3 60.3" enable-background="new 822.2 949.2 60.3 60.3" xml:space="preserve">
<g opacity="0.7">
	<path fill="#010101" d="M841.1,951c0,0-6.8,2.5-7.7,3.9c-1,1.5,1,2.5,1,2.5s0.8,2,2.3,1.1C838.1,957.7,841.1,951,841.1,951z"/>
	<path fill="#010101" d="M840.4,967.9c0,0-2.5-6.8-3.9-7.7c-1.5-1-2.5,1-2.5,1s-2,0.8-1.1,2.3C833.7,965,840.4,967.9,840.4,967.9z"
		/>
	<path fill="#010101" d="M823.4,967.5c0,0,6.8-2.5,7.7-3.9c1-1.5-1-2.5-1-2.5s-0.8-2-2.3-1.1C826.4,960.9,823.4,967.5,823.4,967.5z"
		/>
	<path fill="#010101" d="M824.3,950.7c0,0,2.5,6.8,3.9,7.7c1.5,1,2.5-1,2.5-1s2-0.8,1.1-2.3C830.9,953.6,824.3,950.7,824.3,950.7z"
		/>
	<circle fill="#010101" cx="832.2" cy="959.3" r="1.8"/>
</g>
<g opacity="0.7">
	<path fill="#010101" d="M861.2,951c0,0-6.8,2.5-7.7,3.9c-1,1.5,1,2.5,1,2.5s0.8,2,2.3,1.1C858.2,957.7,861.2,951,861.2,951z"/>
	<path fill="#010101" d="M860.5,967.9c0,0-2.5-6.8-3.9-7.7c-1.5-1-2.5,1-2.5,1s-2,0.8-1.1,2.3C853.8,965,860.5,967.9,860.5,967.9z"
		/>
	<path fill="#010101" d="M843.5,967.5c0,0,6.8-2.5,7.7-3.9c1-1.5-1-2.5-1-2.5s-0.8-2-2.3-1.1C846.5,960.9,843.5,967.5,843.5,967.5z"
		/>
	<path fill="#010101" d="M844.4,950.7c0,0,2.5,6.8,3.9,7.7c1.5,1,2.5-1,2.5-1s2-0.8,1.1-2.3C851,953.6,844.4,950.7,844.4,950.7z"/>
	<circle fill="#010101" cx="852.3" cy="959.3" r="1.8"/>
</g>
<g opacity="0.7">
	<path fill="#010101" d="M881.3,951c0,0-6.8,2.5-7.7,3.9c-1,1.5,1,2.5,1,2.5s0.8,2,2.3,1.1C878.3,957.7,881.3,951,881.3,951z"/>
	<path fill="#010101" d="M880.6,967.9c0,0-2.5-6.8-3.9-7.7c-1.5-1-2.5,1-2.5,1s-2,0.8-1.1,2.3C873.9,965,880.6,967.9,880.6,967.9z"
		/>
	<path fill="#010101" d="M863.6,967.5c0,0,6.8-2.5,7.7-3.9c1-1.5-1-2.5-1-2.5s-0.8-2-2.3-1.1C866.6,960.9,863.6,967.5,863.6,967.5z"
		/>
	<path fill="#010101" d="M864.5,950.7c0,0,2.5,6.8,3.9,7.7c1.5,1,2.5-1,2.5-1s2-0.8,1.1-2.3C871.1,953.6,864.5,950.7,864.5,950.7z"
		/>
	<circle fill="#010101" cx="872.4" cy="959.3" r="1.8"/>
</g>
<g opacity="0.7">
	<path fill="#010101" d="M841.1,971c0,0-6.8,2.5-7.7,3.9c-1,1.5,1,2.5,1,2.5s0.8,2,2.3,1.1C838.1,977.7,841.1,971,841.1,971z"/>
	<path fill="#010101" d="M840.4,987.9c0,0-2.5-6.8-3.9-7.7c-1.5-1-2.5,1-2.5,1s-2,0.8-1.1,2.3C833.7,985,840.4,987.9,840.4,987.9z"
		/>
	<path fill="#010101" d="M823.4,987.5c0,0,6.8-2.5,7.7-3.9c1-1.5-1-2.5-1-2.5s-0.8-2-2.3-1.1C826.4,980.9,823.4,987.5,823.4,987.5z"
		/>
	<path fill="#010101" d="M824.3,970.7c0,0,2.5,6.8,3.9,7.7c1.5,1,2.5-1,2.5-1s2-0.8,1.1-2.3C830.9,973.6,824.3,970.7,824.3,970.7z"
		/>
	<circle fill="#010101" cx="832.2" cy="979.3" r="1.8"/>
</g>
<g opacity="0.7">
	<path fill="#010101" d="M881.3,971c0,0-6.8,2.5-7.7,3.9c-1,1.5,1,2.5,1,2.5s0.8,2,2.3,1.1C878.3,977.7,881.3,971,881.3,971z"/>
	<path fill="#010101" d="M880.6,987.9c0,0-2.5-6.8-3.9-7.7c-1.5-1-2.5,1-2.5,1s-2,0.8-1.1,2.3C873.9,985,880.6,987.9,880.6,987.9z"
		/>
	<path fill="#010101" d="M863.6,987.5c0,0,6.8-2.5,7.7-3.9c1-1.5-1-2.5-1-2.5s-0.8-2-2.3-1.1C866.6,980.9,863.6,987.5,863.6,987.5z"
		/>
	<path fill="#010101" d="M864.5,970.7c0,0,2.5,6.8,3.9,7.7c1.5,1,2.5-1,2.5-1s2-0.8,1.1-2.3C871.1,973.6,864.5,970.7,864.5,970.7z"
		/>
	<circle fill="#010101" cx="872.4" cy="979.3" r="1.8"/>
</g>
<g opacity="0.7">
	<path fill="#010101" d="M841.1,991.3c0,0-6.8,2.5-7.7,3.9c-1,1.5,1,2.5,1,2.5s0.8,2,2.3,1.1C838.1,997.9,841.1,991.3,841.1,991.3z"
		/>
	<path fill="#010101" d="M840.4,1008.2c0,0-2.5-6.8-3.9-7.7c-1.5-1-2.5,1-2.5,1s-2,0.8-1.1,2.3
		C833.7,1005.2,840.4,1008.2,840.4,1008.2z"/>
	<path fill="#010101" d="M823.4,1007.7c0,0,6.8-2.5,7.7-3.9c1-1.5-1-2.5-1-2.5s-0.8-2-2.3-1.1
		C826.4,1001.1,823.4,1007.7,823.4,1007.7z"/>
	<path fill="#010101" d="M824.3,990.9c0,0,2.5,6.8,3.9,7.7c1.5,1,2.5-1,2.5-1s2-0.8,1.1-2.3C830.9,993.9,824.3,990.9,824.3,990.9z"
		/>
	<circle fill="#010101" cx="832.2" cy="999.6" r="1.8"/>
</g>
<g opacity="0.7">
	<path fill="#010101" d="M861.2,991.3c0,0-6.8,2.5-7.7,3.9c-1,1.5,1,2.5,1,2.5s0.8,2,2.3,1.1C858.2,997.9,861.2,991.3,861.2,991.3z"
		/>
	<path fill="#010101" d="M860.5,1008.2c0,0-2.5-6.8-3.9-7.7c-1.5-1-2.5,1-2.5,1s-2,0.8-1.1,2.3
		C853.8,1005.2,860.5,1008.2,860.5,1008.2z"/>
	<path fill="#010101" d="M843.5,1007.7c0,0,6.8-2.5,7.7-3.9c1-1.5-1-2.5-1-2.5s-0.8-2-2.3-1.1
		C846.5,1001.1,843.5,1007.7,843.5,1007.7z"/>
	<path fill="#010101" d="M844.4,990.9c0,0,2.5,6.8,3.9,7.7c1.5,1,2.5-1,2.5-1s2-0.8,1.1-2.3C851,993.9,844.4,990.9,844.4,990.9z"/>
	<circle fill="#010101" cx="852.3" cy="999.6" r="1.8"/>
</g>
<g opacity="0.7">
	<path fill="#010101" d="M881.3,991.3c0,0-6.8,2.5-7.7,3.9c-1,1.5,1,2.5,1,2.5s0.8,2,2.3,1.1C878.3,997.9,881.3,991.3,881.3,991.3z"
		/>
	<path fill="#010101" d="M880.6,1008.2c0,0-2.5-6.8-3.9-7.7c-1.5-1-2.5,1-2.5,1s-2,0.8-1.1,2.3
		C873.9,1005.2,880.6,1008.2,880.6,1008.2z"/>
	<path fill="#010101" d="M863.6,1007.7c0,0,6.8-2.5,7.7-3.9c1-1.5-1-2.5-1-2.5s-0.8-2-2.3-1.1
		C866.6,1001.1,863.6,1007.7,863.6,1007.7z"/>
	<path fill="#010101" d="M864.5,990.9c0,0,2.5,6.8,3.9,7.7c1.5,1,2.5-1,2.5-1s2-0.8,1.1-2.3C871.1,993.9,864.5,990.9,864.5,990.9z"
		/>
	<circle fill="#010101" cx="872.4" cy="999.6" r="1.8"/>
</g>
</svg>
